<svg xmlns="http://www.w3.org/2000/svg" xmlns:xlink="http://www.w3.org/1999/xlink" width="500" zoomAndPan="magnify" viewBox="0 0 375 374.999991" height="500" preserveAspectRatio="xMidYMid meet" version="1.0"><defs><g/><clipPath id="5418237dc7"><rect x="0" width="23" y="0" height="58"/></clipPath></defs><rect x="-37.5" width="450" fill="#ffffff" y="-37.499999" height="449.999989" fill-opacity="1"/><rect x="-37.5" width="450" fill="#000000" y="-37.499999" height="449.999989" fill-opacity="1"/><g fill="#4bffb9" fill-opacity="1"><g transform="translate(109.792483, 237.399534)"><g><path d="M 3.4375 -82 L 43.6875 -50.546875 L 43.6875 -80.046875 L 83.484375 -80.046875 L 83.484375 0 L 3.4375 0 Z M 3.4375 -82 "/></g></g></g><g fill="#4bffb9" fill-opacity="1"><g transform="translate(196.470921, 237.399534)"><g><path d="M 43.453125 -40.03125 L 65.640625 -40.03125 L 65.640625 0 L 3.4375 0 L 3.4375 -80.046875 L 43.453125 -80.046875 Z M 43.453125 -40.03125 "/></g></g></g><g transform="matrix(1, 0, 0, 1, 239, 153)"><g clip-path="url(#5418237dc7)"><g fill="#ffeff1" fill-opacity="1"><g transform="translate(10.238742, 57.018956)"><g><path d="M -7.34375 -3.8125 C -7.34375 -4.738281 -7.15625 -5.5 -6.78125 -6.09375 C -6.40625 -6.6875 -5.851562 -6.988281 -5.125 -7 L -5 -7 L -5 -4.828125 L -5.046875 -4.828125 C -5.253906 -4.828125 -5.425781 -4.75 -5.5625 -4.59375 C -5.707031 -4.445312 -5.78125 -4.210938 -5.78125 -3.890625 C -5.78125 -3.585938 -5.734375 -3.351562 -5.640625 -3.1875 C -5.546875 -3.019531 -5.429688 -2.9375 -5.296875 -2.9375 C -5.109375 -2.9375 -4.96875 -3.046875 -4.875 -3.265625 C -4.789062 -3.492188 -4.695312 -3.859375 -4.59375 -4.359375 C -4.476562 -4.941406 -4.351562 -5.421875 -4.21875 -5.796875 C -4.09375 -6.171875 -3.882812 -6.492188 -3.59375 -6.765625 C -3.300781 -7.046875 -2.898438 -7.191406 -2.390625 -7.203125 C -1.535156 -7.203125 -0.898438 -6.910156 -0.484375 -6.328125 C -0.078125 -5.753906 0.125 -4.984375 0.125 -4.015625 C 0.125 -2.890625 -0.0625 -2.015625 -0.4375 -1.390625 C -0.820312 -0.765625 -1.492188 -0.453125 -2.453125 -0.453125 L -2.453125 -2.640625 C -2.085938 -2.640625 -1.84375 -2.734375 -1.71875 -2.921875 C -1.59375 -3.117188 -1.53125 -3.414062 -1.53125 -3.8125 C -1.53125 -4.101562 -1.5625 -4.34375 -1.625 -4.53125 C -1.6875 -4.726562 -1.816406 -4.828125 -2.015625 -4.828125 C -2.191406 -4.828125 -2.320312 -4.71875 -2.40625 -4.5 C -2.5 -4.289062 -2.59375 -3.945312 -2.6875 -3.46875 C -2.8125 -2.875 -2.941406 -2.382812 -3.078125 -2 C -3.210938 -1.613281 -3.4375 -1.273438 -3.75 -0.984375 C -4.070312 -0.703125 -4.503906 -0.5625 -5.046875 -0.5625 C -5.828125 -0.5625 -6.40625 -0.867188 -6.78125 -1.484375 C -7.15625 -2.097656 -7.34375 -2.875 -7.34375 -3.8125 Z M -7.34375 -3.8125 "/></g></g></g><g fill="#ffeff1" fill-opacity="1"><g transform="translate(10.238742, 49.444755)"><g><path d="M -5.671875 -3.5 C -5.671875 -4.46875 -5.421875 -5.226562 -4.921875 -5.78125 C -4.429688 -6.34375 -3.710938 -6.625 -2.765625 -6.625 C -1.828125 -6.625 -1.109375 -6.34375 -0.609375 -5.78125 C -0.117188 -5.226562 0.125 -4.46875 0.125 -3.5 C 0.125 -2.519531 -0.117188 -1.753906 -0.609375 -1.203125 C -1.097656 -0.648438 -1.816406 -0.375 -2.765625 -0.375 C -3.722656 -0.375 -4.445312 -0.648438 -4.9375 -1.203125 C -5.425781 -1.753906 -5.671875 -2.519531 -5.671875 -3.5 Z M -4.25 -3.5 C -4.25 -2.8125 -3.851562 -2.46875 -3.0625 -2.46875 L -2.46875 -2.46875 C -1.6875 -2.46875 -1.296875 -2.8125 -1.296875 -3.5 C -1.296875 -4.1875 -1.6875 -4.53125 -2.46875 -4.53125 L -3.0625 -4.53125 C -3.851562 -4.53125 -4.25 -4.1875 -4.25 -3.5 Z M -4.25 -3.5 "/></g></g></g><g fill="#ffeff1" fill-opacity="1"><g transform="translate(10.238742, 42.447536)"><g><path d="M -7.734375 -2.890625 C -7.734375 -3.046875 -7.710938 -3.238281 -7.671875 -3.46875 C -7.640625 -3.695312 -7.597656 -3.878906 -7.546875 -4.015625 L -6.328125 -4.015625 L -6.328125 -3.53125 C -6.328125 -3.3125 -6.28125 -3.160156 -6.1875 -3.078125 C -6.101562 -2.992188 -5.960938 -2.953125 -5.765625 -2.953125 L -5.546875 -2.953125 L -5.546875 -4.015625 L -4.125 -4.015625 L -4.125 -2.953125 L 0 -2.953125 L 0 -0.859375 L -4.125 -0.859375 L -4.125 -0.078125 L -5.546875 -0.078125 L -5.546875 -0.859375 L -5.78125 -0.859375 C -6.488281 -0.859375 -6.988281 -1.03125 -7.28125 -1.375 C -7.582031 -1.726562 -7.734375 -2.234375 -7.734375 -2.890625 Z M -7.734375 -2.890625 "/></g></g></g><g fill="#ffeff1" fill-opacity="1"><g transform="translate(10.238742, 38.366696)"><g><path d="M -5.546875 -4.328125 L -4.125 -4.328125 L -4.125 -3.15625 L -2.015625 -3.15625 C -1.765625 -3.15625 -1.582031 -3.195312 -1.46875 -3.28125 C -1.351562 -3.363281 -1.296875 -3.515625 -1.296875 -3.734375 L -1.296875 -4.328125 L -0.0625 -4.328125 C -0.0078125 -4.160156 0.03125 -3.941406 0.0625 -3.671875 C 0.101562 -3.410156 0.125 -3.179688 0.125 -2.984375 C 0.125 -2.367188 0.015625 -1.894531 -0.203125 -1.5625 C -0.429688 -1.226562 -0.816406 -1.0625 -1.359375 -1.0625 L -4.125 -1.0625 L -4.125 -0.28125 L -5.546875 -0.28125 L -5.546875 -1.140625 L -7.21875 -1.59375 L -7.21875 -3.15625 L -5.546875 -3.15625 Z M -5.546875 -4.328125 "/></g></g></g><g fill="#ffeff1" fill-opacity="1"><g transform="translate(10.238742, 33.708875)"><g><path d="M 0 -5.84375 L -3.09375 -4.984375 L -3.09375 -4.9375 L 0 -4.0625 L 0 -2.03125 L -5.546875 0 L -5.546875 -2.25 L -2.265625 -3.09375 L -2.265625 -3.15625 L -5.546875 -4.03125 L -5.546875 -6.109375 L -2.265625 -6.953125 L -2.265625 -7.03125 L -5.546875 -7.875 L -5.546875 -9.90625 L 0 -7.875 Z M 0 -5.84375 "/></g></g></g><g fill="#ffeff1" fill-opacity="1"><g transform="translate(10.238742, 23.805764)"><g><path d="M -5.671875 -3.375 C -5.671875 -4.21875 -5.523438 -4.90625 -5.234375 -5.4375 C -4.953125 -5.96875 -4.492188 -6.234375 -3.859375 -6.234375 L -1.703125 -6.234375 C -1.578125 -6.234375 -1.476562 -6.257812 -1.40625 -6.3125 C -1.332031 -6.375 -1.296875 -6.460938 -1.296875 -6.578125 L -1.296875 -6.953125 L -0.078125 -6.953125 C -0.0664062 -6.929688 -0.046875 -6.875 -0.015625 -6.78125 C 0.015625 -6.695312 0.046875 -6.570312 0.078125 -6.40625 C 0.109375 -6.25 0.125 -6.066406 0.125 -5.859375 C 0.125 -5.453125 0.0664062 -5.117188 -0.046875 -4.859375 C -0.171875 -4.597656 -0.34375 -4.414062 -0.5625 -4.3125 C -0.351562 -4.050781 -0.1875 -3.753906 -0.0625 -3.421875 C 0.0625 -3.085938 0.125 -2.703125 0.125 -2.265625 C 0.125 -0.960938 -0.390625 -0.3125 -1.421875 -0.3125 C -1.960938 -0.3125 -2.375 -0.457031 -2.65625 -0.75 C -2.945312 -1.039062 -3.144531 -1.457031 -3.25 -2 C -3.351562 -2.550781 -3.40625 -3.265625 -3.40625 -4.140625 L -3.671875 -4.140625 C -3.890625 -4.140625 -4.054688 -4.066406 -4.171875 -3.921875 C -4.285156 -3.773438 -4.34375 -3.582031 -4.34375 -3.34375 C -4.34375 -3.125 -4.300781 -2.9375 -4.21875 -2.78125 C -4.144531 -2.625 -4.023438 -2.546875 -3.859375 -2.546875 L -3.8125 -2.546875 L -3.8125 -0.484375 C -3.84375 -0.472656 -3.890625 -0.46875 -3.953125 -0.46875 C -4.484375 -0.46875 -4.898438 -0.71875 -5.203125 -1.21875 C -5.515625 -1.71875 -5.671875 -2.4375 -5.671875 -3.375 Z M -2.421875 -4.140625 C -2.421875 -3.546875 -2.351562 -3.109375 -2.21875 -2.828125 C -2.09375 -2.546875 -1.921875 -2.40625 -1.703125 -2.40625 C -1.347656 -2.40625 -1.171875 -2.644531 -1.171875 -3.125 C -1.171875 -3.394531 -1.242188 -3.628906 -1.390625 -3.828125 C -1.535156 -4.035156 -1.71875 -4.140625 -1.9375 -4.140625 Z M -2.421875 -4.140625 "/></g></g></g><g fill="#ffeff1" fill-opacity="1"><g transform="translate(10.238742, 16.808545)"><g><path d="M -5.6875 -4 C -5.6875 -4.15625 -5.664062 -4.296875 -5.625 -4.421875 C -5.582031 -4.554688 -5.554688 -4.625 -5.546875 -4.625 L -3.796875 -4.625 L -3.796875 -3.953125 C -3.796875 -3.515625 -3.679688 -3.195312 -3.453125 -3 C -3.234375 -2.8125 -2.90625 -2.71875 -2.46875 -2.71875 L 0 -2.71875 L 0 -0.625 L -5.546875 -0.625 L -5.546875 -2.34375 L -4.703125 -2.484375 C -5.023438 -2.609375 -5.269531 -2.804688 -5.4375 -3.078125 C -5.601562 -3.347656 -5.6875 -3.65625 -5.6875 -4 Z M -5.6875 -4 "/></g></g></g><g fill="#ffeff1" fill-opacity="1"><g transform="translate(10.238742, 12.150723)"><g><path d="M -5.671875 -3.5 C -5.671875 -4.507812 -5.429688 -5.28125 -4.953125 -5.8125 C -4.472656 -6.351562 -3.742188 -6.625 -2.765625 -6.625 L -2.421875 -6.625 L -2.421875 -2.46875 C -2.015625 -2.46875 -1.707031 -2.554688 -1.5 -2.734375 C -1.300781 -2.910156 -1.203125 -3.191406 -1.203125 -3.578125 C -1.203125 -3.929688 -1.273438 -4.1875 -1.421875 -4.34375 C -1.578125 -4.507812 -1.773438 -4.59375 -2.015625 -4.59375 L -2.015625 -6.625 C -1.347656 -6.625 -0.820312 -6.367188 -0.4375 -5.859375 C -0.0625 -5.347656 0.125 -4.601562 0.125 -3.625 C 0.125 -2.59375 -0.113281 -1.789062 -0.59375 -1.21875 C -1.070312 -0.65625 -1.796875 -0.375 -2.765625 -0.375 C -3.722656 -0.375 -4.445312 -0.648438 -4.9375 -1.203125 C -5.425781 -1.753906 -5.671875 -2.519531 -5.671875 -3.5 Z M -4.34375 -3.578125 C -4.34375 -2.921875 -4.03125 -2.554688 -3.40625 -2.484375 L -3.40625 -4.515625 C -3.6875 -4.515625 -3.910156 -4.429688 -4.078125 -4.265625 C -4.253906 -4.097656 -4.34375 -3.867188 -4.34375 -3.578125 Z M -4.34375 -3.578125 "/></g></g></g><g fill="#ffeff1" fill-opacity="1"><g transform="translate(19.750861, 57.018956)"><g><path d="M -5.671875 -3.265625 C -5.671875 -4.003906 -5.523438 -4.628906 -5.234375 -5.140625 C -4.941406 -5.660156 -4.492188 -5.921875 -3.890625 -5.921875 L -3.890625 -3.984375 C -4.085938 -3.984375 -4.226562 -3.890625 -4.3125 -3.703125 C -4.382812 -3.578125 -4.421875 -3.421875 -4.421875 -3.234375 C -4.421875 -2.734375 -4.300781 -2.484375 -4.0625 -2.484375 C -3.925781 -2.484375 -3.832031 -2.566406 -3.78125 -2.734375 C -3.726562 -2.910156 -3.664062 -3.195312 -3.59375 -3.59375 C -3.53125 -4.09375 -3.453125 -4.503906 -3.359375 -4.828125 C -3.265625 -5.160156 -3.09375 -5.445312 -2.84375 -5.6875 C -2.601562 -5.9375 -2.269531 -6.0625 -1.84375 -6.0625 C -1.132812 -6.0625 -0.628906 -5.796875 -0.328125 -5.265625 C -0.0234375 -4.734375 0.125 -4.039062 0.125 -3.1875 C 0.125 -2.695312 0.0546875 -2.234375 -0.078125 -1.796875 C -0.210938 -1.367188 -0.421875 -1.019531 -0.703125 -0.75 C -0.992188 -0.476562 -1.363281 -0.34375 -1.8125 -0.34375 L -1.8125 -2.28125 L -1.765625 -2.28125 C -1.523438 -2.28125 -1.359375 -2.375 -1.265625 -2.5625 C -1.171875 -2.757812 -1.125 -2.96875 -1.125 -3.1875 C -1.125 -3.769531 -1.257812 -4.0625 -1.53125 -4.0625 C -1.675781 -4.0625 -1.78125 -3.96875 -1.84375 -3.78125 C -1.90625 -3.601562 -1.96875 -3.304688 -2.03125 -2.890625 C -2.113281 -2.398438 -2.203125 -1.992188 -2.296875 -1.671875 C -2.398438 -1.359375 -2.566406 -1.082031 -2.796875 -0.84375 C -3.035156 -0.601562 -3.367188 -0.484375 -3.796875 -0.484375 C -4.472656 -0.484375 -4.953125 -0.738281 -5.234375 -1.25 C -5.523438 -1.769531 -5.671875 -2.441406 -5.671875 -3.265625 Z M -5.671875 -3.265625 "/></g></g></g><g fill="#ffeff1" fill-opacity="1"><g transform="translate(19.750861, 50.609217)"><g><path d="M -5.671875 -3.5 C -5.671875 -4.46875 -5.421875 -5.226562 -4.921875 -5.78125 C -4.429688 -6.34375 -3.710938 -6.625 -2.765625 -6.625 C -1.828125 -6.625 -1.109375 -6.34375 -0.609375 -5.78125 C -0.117188 -5.226562 0.125 -4.46875 0.125 -3.5 C 0.125 -2.519531 -0.117188 -1.753906 -0.609375 -1.203125 C -1.097656 -0.648438 -1.816406 -0.375 -2.765625 -0.375 C -3.722656 -0.375 -4.445312 -0.648438 -4.9375 -1.203125 C -5.425781 -1.753906 -5.671875 -2.519531 -5.671875 -3.5 Z M -4.25 -3.5 C -4.25 -2.8125 -3.851562 -2.46875 -3.0625 -2.46875 L -2.46875 -2.46875 C -1.6875 -2.46875 -1.296875 -2.8125 -1.296875 -3.5 C -1.296875 -4.1875 -1.6875 -4.53125 -2.46875 -4.53125 L -3.0625 -4.53125 C -3.851562 -4.53125 -4.25 -4.1875 -4.25 -3.5 Z M -4.25 -3.5 "/></g></g></g><g fill="#ffeff1" fill-opacity="1"><g transform="translate(19.750861, 43.611998)"><g><path d="M 0 -0.703125 L -7.609375 -0.703125 L -7.609375 -2.796875 L 0 -2.796875 Z M 0 -0.703125 "/></g></g></g><g fill="#ffeff1" fill-opacity="1"><g transform="translate(19.750861, 40.118638)"><g><path d="M 0 -4.65625 L -0.84375 -4.515625 C -0.539062 -4.296875 -0.300781 -4.007812 -0.125 -3.65625 C 0.0390625 -3.300781 0.125 -2.929688 0.125 -2.546875 C 0.125 -1.898438 -0.0507812 -1.414062 -0.40625 -1.09375 C -0.757812 -0.769531 -1.273438 -0.609375 -1.953125 -0.609375 L -5.546875 -0.609375 L -5.546875 -2.703125 L -2.203125 -2.703125 C -1.960938 -2.703125 -1.769531 -2.757812 -1.625 -2.875 C -1.488281 -3 -1.421875 -3.175781 -1.421875 -3.40625 C -1.421875 -3.664062 -1.503906 -3.875 -1.671875 -4.03125 C -1.835938 -4.195312 -2.039062 -4.28125 -2.28125 -4.28125 L -5.546875 -4.28125 L -5.546875 -6.359375 L 0 -6.359375 Z M 0 -4.65625 "/></g></g></g><g fill="#ffeff1" fill-opacity="1"><g transform="translate(19.750861, 33.121419)"><g><path d="M -5.546875 -4.328125 L -4.125 -4.328125 L -4.125 -3.15625 L -2.015625 -3.15625 C -1.765625 -3.15625 -1.582031 -3.195312 -1.46875 -3.28125 C -1.351562 -3.363281 -1.296875 -3.515625 -1.296875 -3.734375 L -1.296875 -4.328125 L -0.0625 -4.328125 C -0.0078125 -4.160156 0.03125 -3.941406 0.0625 -3.671875 C 0.101562 -3.410156 0.125 -3.179688 0.125 -2.984375 C 0.125 -2.367188 0.015625 -1.894531 -0.203125 -1.5625 C -0.429688 -1.226562 -0.816406 -1.0625 -1.359375 -1.0625 L -4.125 -1.0625 L -4.125 -0.28125 L -5.546875 -0.28125 L -5.546875 -1.140625 L -7.21875 -1.59375 L -7.21875 -3.15625 L -5.546875 -3.15625 Z M -5.546875 -4.328125 "/></g></g></g><g fill="#ffeff1" fill-opacity="1"><g transform="translate(19.750861, 28.463597)"><g><path d="M -6.1875 -0.703125 L -7.609375 -0.703125 L -7.609375 -2.796875 L -6.1875 -2.796875 Z M 0 -0.703125 L -5.546875 -0.703125 L -5.546875 -2.796875 L 0 -2.796875 Z M 0 -0.703125 "/></g></g></g><g fill="#ffeff1" fill-opacity="1"><g transform="translate(19.750861, 24.970237)"><g><path d="M -5.671875 -3.5 C -5.671875 -4.46875 -5.421875 -5.226562 -4.921875 -5.78125 C -4.429688 -6.34375 -3.710938 -6.625 -2.765625 -6.625 C -1.828125 -6.625 -1.109375 -6.34375 -0.609375 -5.78125 C -0.117188 -5.226562 0.125 -4.46875 0.125 -3.5 C 0.125 -2.519531 -0.117188 -1.753906 -0.609375 -1.203125 C -1.097656 -0.648438 -1.816406 -0.375 -2.765625 -0.375 C -3.722656 -0.375 -4.445312 -0.648438 -4.9375 -1.203125 C -5.425781 -1.753906 -5.671875 -2.519531 -5.671875 -3.5 Z M -4.25 -3.5 C -4.25 -2.8125 -3.851562 -2.46875 -3.0625 -2.46875 L -2.46875 -2.46875 C -1.6875 -2.46875 -1.296875 -2.8125 -1.296875 -3.5 C -1.296875 -4.1875 -1.6875 -4.53125 -2.46875 -4.53125 L -3.0625 -4.53125 C -3.851562 -4.53125 -4.25 -4.1875 -4.25 -3.5 Z M -4.25 -3.5 "/></g></g></g><g fill="#ffeff1" fill-opacity="1"><g transform="translate(19.750861, 17.973018)"><g><path d="M -5.671875 -4.453125 C -5.671875 -5.097656 -5.488281 -5.582031 -5.125 -5.90625 C -4.769531 -6.226562 -4.257812 -6.390625 -3.59375 -6.390625 L 0 -6.390625 L 0 -4.296875 L -3.34375 -4.296875 C -3.582031 -4.296875 -3.769531 -4.234375 -3.90625 -4.109375 C -4.050781 -3.984375 -4.125 -3.8125 -4.125 -3.59375 C -4.125 -3.332031 -4.039062 -3.117188 -3.875 -2.953125 C -3.707031 -2.796875 -3.5 -2.71875 -3.25 -2.71875 L 0 -2.71875 L 0 -0.625 L -5.546875 -0.625 L -5.546875 -2.34375 L -4.703125 -2.484375 C -4.992188 -2.691406 -5.226562 -2.972656 -5.40625 -3.328125 C -5.582031 -3.679688 -5.671875 -4.054688 -5.671875 -4.453125 Z M -5.671875 -4.453125 "/></g></g></g><g fill="#ffeff1" fill-opacity="1"><g transform="translate(19.750861, 10.975799)"><g><path d="M -5.671875 -3.265625 C -5.671875 -4.003906 -5.523438 -4.628906 -5.234375 -5.140625 C -4.941406 -5.660156 -4.492188 -5.921875 -3.890625 -5.921875 L -3.890625 -3.984375 C -4.085938 -3.984375 -4.226562 -3.890625 -4.3125 -3.703125 C -4.382812 -3.578125 -4.421875 -3.421875 -4.421875 -3.234375 C -4.421875 -2.734375 -4.300781 -2.484375 -4.0625 -2.484375 C -3.925781 -2.484375 -3.832031 -2.566406 -3.78125 -2.734375 C -3.726562 -2.910156 -3.664062 -3.195312 -3.59375 -3.59375 C -3.53125 -4.09375 -3.453125 -4.503906 -3.359375 -4.828125 C -3.265625 -5.160156 -3.09375 -5.445312 -2.84375 -5.6875 C -2.601562 -5.9375 -2.269531 -6.0625 -1.84375 -6.0625 C -1.132812 -6.0625 -0.628906 -5.796875 -0.328125 -5.265625 C -0.0234375 -4.734375 0.125 -4.039062 0.125 -3.1875 C 0.125 -2.695312 0.0546875 -2.234375 -0.078125 -1.796875 C -0.210938 -1.367188 -0.421875 -1.019531 -0.703125 -0.75 C -0.992188 -0.476562 -1.363281 -0.34375 -1.8125 -0.34375 L -1.8125 -2.28125 L -1.765625 -2.28125 C -1.523438 -2.28125 -1.359375 -2.375 -1.265625 -2.5625 C -1.171875 -2.757812 -1.125 -2.96875 -1.125 -3.1875 C -1.125 -3.769531 -1.257812 -4.0625 -1.53125 -4.0625 C -1.675781 -4.0625 -1.78125 -3.96875 -1.84375 -3.78125 C -1.90625 -3.601562 -1.96875 -3.304688 -2.03125 -2.890625 C -2.113281 -2.398438 -2.203125 -1.992188 -2.296875 -1.671875 C -2.398438 -1.359375 -2.566406 -1.082031 -2.796875 -0.84375 C -3.035156 -0.601562 -3.367188 -0.484375 -3.796875 -0.484375 C -4.472656 -0.484375 -4.953125 -0.738281 -5.234375 -1.25 C -5.523438 -1.769531 -5.671875 -2.441406 -5.671875 -3.265625 Z M -5.671875 -3.265625 "/></g></g></g><g fill="#ffeff1" fill-opacity="1"><g transform="translate(19.750861, 4.56606)"><g/></g></g></g></g></svg>